Coordinates
version=1
nRows=41
nColumns=38
inDegrees=no

Units are S.I. units (second, meters, Newtons, ...)
If the header above contains a line with 'inDegrees', this indicates whether rotational values are in degrees (yes) or radians (no).

endheader
time	pelvis_tilt	pelvis_list	pelvis_rotation	pelvis_tx	pelvis_ty	pelvis_tz	hip_flexion_r	hip_adduction_r	hip_rotation_r	knee_angle_r	ankle_angle_r	subtalar_angle_r	mtp_angle_r	hip_flexion_l	hip_adduction_l	hip_rotation_l	knee_angle_l	ankle_angle_l	subtalar_angle_l	mtp_angle_l	lumbar_extension	lumbar_bending	lumbar_rotation	arm_flex_r	arm_add_r	arm_rot_r	elbow_flex_r	pro_sup_r	wrist_flex_r	wrist_dev_r	arm_flex_l	arm_add_l	arm_rot_l	elbow_flex_l	pro_sup_l	wrist_flex_l	wrist_dev_l
1.65	-0.0251752	1.25558	-1.38522	0.660336	0.174037	0.927224	0.0799682	-0.024876	-0.224722	0.222261	-0.182021	0	0	-0.523599	-0.0970035	-0.185399	0.292518	-0.120329	0	0	-0.325933	0.125944	0.133249	-0.124443	-0.723373	-0.0610348	1.58593	0.633636	0	0	0.575492	-0.476702	0.678597	1.04801	0.716233	0	0
1.66	-0.0337652	1.25528	-1.37828	0.659225	0.163266	0.926213	0.0837213	-0.0176257	-0.217774	0.252959	-0.173401	0	0	-0.523599	-0.103057	-0.184202	0.310354	-0.1198	0	0	-0.325756	0.129684	0.133431	-0.122097	-0.722822	-0.0604253	1.58611	0.636646	0	0	0.571569	-0.477353	0.675229	1.04893	0.716192	0	0
1.67	-0.0436027	1.25478	-1.37028	0.65802	0.152383	0.92541	0.0853684	-0.0101098	-0.211028	0.271789	-0.179261	0	0	-0.523599	-0.109393	-0.18229	0.330458	-0.120745	0	0	-0.325863	0.133875	0.134124	-0.120366	-0.721964	-0.0600741	1.58639	0.640647	0	0	0.567173	-0.47749	0.671105	1.04944	0.71649	0	0
1.68	-0.0552356	1.25458	-1.36071	0.656724	0.141396	0.924784	0.0856218	-0.00262481	-0.204152	0.280786	-0.200629	0	0	-0.523599	-0.116117	-0.178927	0.353328	-0.123357	0	0	-0.325439	0.138593	0.135367	-0.119016	-0.720745	-0.0598421	1.58622	0.644934	0	0	0.562469	-0.477058	0.66684	1.04926	0.717314	0	0
1.69	-0.0671711	1.25475	-1.35093	0.655294	0.130179	0.924278	0.0835875	0.0051867	-0.197543	0.283503	-0.226884	0	0	-0.523599	-0.12308	-0.173321	0.379195	-0.127946	0	0	-0.324036	0.143147	0.13703	-0.118253	-0.71897	-0.0596098	1.58546	0.648761	0	0	0.557658	-0.47665	0.663366	1.0489	0.71817	0	0
1.7	-0.0781315	1.2545	-1.34213	0.6537	0.118665	0.923928	0.0784578	0.0131905	-0.192506	0.284206	-0.253204	0	0	-0.523599	-0.130391	-0.165497	0.408036	-0.134753	0	0	-0.322394	0.14705	0.138949	-0.118244	-0.716758	-0.0592083	1.58427	0.652091	0	0	0.553076	-0.476876	0.661237	1.04879	0.719041	0	0
1.71	-0.0884832	1.25273	-1.33423	0.651958	0.106952	0.923861	0.0711867	0.0212829	-0.189429	0.287431	-0.278552	0	0	-0.523599	-0.138314	-0.156142	0.441662	-0.144246	0	0	-0.321857	0.150663	0.14141	-0.11898	-0.714845	-0.0582665	1.58307	0.655662	0	0	0.549007	-0.477644	0.660254	1.04861	0.720911	0	0
1.72	-0.0987947	1.24925	-1.32718	0.65016	0.0952586	0.92411	0.0640807	0.0290934	-0.186465	0.29738	-0.300134	0	0	-0.523599	-0.146432	-0.145012	0.481972	-0.157188	0	0	-0.32326	0.154464	0.144695	-0.119499	-0.713753	-0.0566348	1.5819	0.659512	0	0	0.544962	-0.478381	0.659088	1.04862	0.721673	0	0
1.73	-0.109697	1.24401	-1.32066	0.648333	0.0836983	0.924652	0.0573378	0.0367188	-0.182832	0.313552	-0.31779	0	0	-0.523599	-0.154699	-0.13259	0.530155	-0.174381	0	0	-0.326757	0.158642	0.148908	-0.118948	-0.71336	-0.0544339	1.58035	0.662234	0	0	0.541092	-0.479227	0.657862	1.04897	0.721136	0	0
1.74	-0.120859	1.23599	-1.31416	0.646511	0.0722376	0.925489	0.0477091	0.0445444	-0.181002	0.331344	-0.329169	0	0	-0.523599	-0.164151	-0.120521	0.58516	-0.194018	0	0	-0.333087	0.163485	0.153758	-0.118159	-0.71341	-0.052582	1.57903	0.662683	0	0	0.53799	-0.480257	0.657044	1.05009	0.720087	0	0
1.75	-0.132814	1.22827	-1.3074	0.644657	0.0608361	0.9263	0.0378392	0.0521357	-0.182065	0.349344	-0.333348	0	0	-0.51334	-0.174918	-0.112221	0.648197	-0.218379	0	0	-0.33922	0.168422	0.159301	-0.118143	-0.714347	-0.0509214	1.57881	0.661553	0	0	0.535069	-0.481672	0.656456	1.05232	0.718745	0	0
1.76	-0.145068	1.22106	-1.30059	0.642859	0.0495087	0.92703	0.0268744	0.0595646	-0.186823	0.36467	-0.329528	0	0	-0.493307	-0.18623	-0.106611	0.718302	-0.246085	0	0	-0.344521	0.173377	0.165335	-0.118931	-0.716713	-0.0488159	1.57942	0.659974	0	0	0.53258	-0.482739	0.656144	1.05437	0.717532	0	0
1.77	-0.15718	1.2127	-1.29335	0.641203	0.0384368	0.927765	0.0128627	0.0673118	-0.194557	0.376276	-0.321334	0	0	-0.470191	-0.197913	-0.101519	0.792646	-0.277752	0	0	-0.351418	0.179034	0.17161	-0.120725	-0.720616	-0.0477839	1.58188	0.656314	0	0	0.531363	-0.483396	0.656278	1.0566	0.715497	0	0
1.78	-0.16927	1.20328	-1.28493	0.639699	0.0276881	0.928485	-0.00374344	0.0757404	-0.202983	0.384781	-0.311393	0	0	-0.444539	-0.210048	-0.0962771	0.868872	-0.307957	0	0	-0.360169	0.185457	0.177796	-0.123758	-0.725611	-0.0486145	1.58643	0.649828	0	0	0.531881	-0.484045	0.657583	1.05948	0.712635	0	0
1.79	-0.181383	1.1943	-1.27552	0.638321	0.0173097	0.929051	-0.0203922	0.0846974	-0.209538	0.391945	-0.300106	0	0	-0.415466	-0.221865	-0.0893726	0.945898	-0.328923	0	0	-0.369199	0.19215	0.1841	-0.128136	-0.732015	-0.0506599	1.59294	0.642063	0	0	0.534148	-0.484598	0.66031	1.06285	0.708747	0	0
1.8	-0.192431	1.18627	-1.26638	0.637071	0.00724991	0.929505	-0.036369	0.0936457	-0.213462	0.398537	-0.287058	0	0	-0.384147	-0.231811	-0.0794104	1.02229	-0.339225	0	0	-0.377801	0.198484	0.190418	-0.133524	-0.738589	-0.0546354	1.60036	0.633091	0	0	0.537896	-0.484964	0.66444	1.06634	0.704598	0	0
1.81	-0.201833	1.17912	-1.25798	0.636004	-0.00249742	0.930016	-0.0514726	0.10186	-0.216415	0.405157	-0.273093	0	0	-0.351819	-0.239227	-0.0668618	1.09597	-0.342144	0	0	-0.385994	0.204372	0.196376	-0.139198	-0.744919	-0.0599791	1.60765	0.623638	0	0	0.54267	-0.484661	0.669312	1.06922	0.70062	0	0
1.82	-0.208911	1.17219	-1.25068	0.635068	-0.0120033	0.930789	-0.0674039	0.109634	-0.218855	0.409714	-0.259452	0	0	-0.319411	-0.243444	-0.0513454	1.16537	-0.337922	0	0	-0.394072	0.209472	0.201306	-0.144291	-0.7505	-0.0652481	1.61368	0.616135	0	0	0.548243	-0.483855	0.674883	1.07083	0.697219	0	0
1.83	-0.211864	1.16509	-1.24619	0.634215	-0.0213575	0.93195	-0.0860604	0.116853	-0.219837	0.409156	-0.248418	0	0	-0.287824	-0.24378	-0.0339301	1.22891	-0.319412	0	0	-0.402484	0.212837	0.204581	-0.148003	-0.754471	-0.0695287	1.61763	0.61223	0	0	0.554045	-0.482991	0.680615	1.07128	0.694372	0	0
1.84	-0.209713	1.15769	-1.2458	0.633375	-0.0306579	0.933516	-0.107876	0.123065	-0.21909	0.403657	-0.240221	0	0	-0.258465	-0.240536	-0.0164751	1.28531	-0.286362	0	0	-0.411306	0.21393	0.206133	-0.149839	-0.756071	-0.0732453	1.61912	0.610201	0	0	0.559732	-0.482604	0.686376	1.07122	0.690566	0	0
1.85	-0.203733	1.15038	-1.24892	0.632502	-0.039953	0.935372	-0.131694	0.128034	-0.217751	0.39508	-0.234323	0	0	-0.231352	-0.235037	-0.0015011	1.33415	-0.248888	0	0	-0.420045	0.213141	0.206747	-0.150763	-0.755858	-0.0762511	1.61918	0.607595	0	0	0.565505	-0.482805	0.692752	1.07096	0.685879	0	0
1.86	-0.195721	1.14364	-1.25474	0.631492	-0.0493137	0.93736	-0.156537	0.131985	-0.216812	0.38397	-0.230241	0	0	-0.205699	-0.227633	0.0103933	1.37521	-0.216467	0	0	-0.428055	0.210732	0.207394	-0.151095	-0.755272	-0.0774927	1.61824	0.6066	0	0	0.571264	-0.483687	0.699939	1.07056	0.681098	0	0
1.87	-0.186777	1.13849	-1.26287	0.630351	-0.0587463	0.939327	-0.180219	0.134319	-0.217681	0.372705	-0.22736	0	0	-0.180364	-0.218362	0.0190926	1.40758	-0.194135	0	0	-0.434318	0.206777	0.208326	-0.150663	-0.753719	-0.0774258	1.61627	0.605242	0	0	0.576049	-0.484901	0.706392	1.07002	0.677532	0	0
1.88	-0.177045	1.13462	-1.27333	0.629092	-0.0682048	0.941244	-0.202698	0.135035	-0.220301	0.361462	-0.225307	0	0	-0.155515	-0.207161	0.0259995	1.43116	-0.176942	0	0	-0.439248	0.201378	0.210146	-0.149811	-0.752018	-0.0768019	1.61368	0.603272	0	0	0.580555	-0.486109	0.712903	1.06904	0.673806	0	0
1.89	-0.166912	1.13231	-1.28588	0.627743	-0.077651	0.943081	-0.222935	0.134072	-0.223512	0.351761	-0.223766	0	0	-0.130986	-0.195556	0.0296794	1.44588	-0.164916	0	0	-0.443001	0.194687	0.213016	-0.149085	-0.750513	-0.0760617	1.61131	0.60184	0	0	0.58422	-0.487128	0.718167	1.06806	0.670663	0	0
1.9	-0.156538	1.13087	-1.30049	0.626268	-0.0870897	0.944844	-0.241719	0.131911	-0.226491	0.343179	-0.222443	0	0	-0.107731	-0.184235	0.0294786	1.45293	-0.155862	0	0	-0.446229	0.186895	0.217102	-0.148271	-0.748882	-0.075006	1.60904	0.601837	0	0	0.586776	-0.488035	0.721537	1.06746	0.668712	0	0
1.91	-0.145629	1.12967	-1.3169	0.624711	-0.0964896	0.946507	-0.25989	0.128808	-0.228873	0.33501	-0.221123	0	0	-0.0861982	-0.173133	0.0258273	1.45324	-0.147993	0	0	-0.449441	0.178355	0.222239	-0.147635	-0.747251	-0.0742629	1.60723	0.601826	0	0	0.588635	-0.488618	0.723349	1.0671	0.667876	0	0
1.92	-0.134822	1.12871	-1.33445	0.623093	-0.105883	0.948018	-0.277495	0.125248	-0.229832	0.326906	-0.21928	0	0	-0.0660189	-0.163167	0.0178962	1.44729	-0.141191	0	0	-0.452754	0.169473	0.228547	-0.147632	-0.74573	-0.0745732	1.60644	0.600553	0	0	0.589906	-0.489195	0.724026	1.06757	0.667277	0	0
1.93	-0.124543	1.12792	-1.35255	0.621452	-0.115257	0.949335	-0.294619	0.121497	-0.228641	0.319029	-0.216594	0	0	-0.0472701	-0.154449	0.00703614	1.43553	-0.135444	0	0	-0.455852	0.160458	0.235899	-0.148084	-0.744788	-0.0752797	1.6063	0.598386	0	0	0.59101	-0.48963	0.724332	1.0683	0.666896	0	0
1.94	-0.114859	1.127	-1.37072	0.619836	-0.124628	0.95047	-0.311592	0.117663	-0.225997	0.311425	-0.213657	0	0	-0.0307306	-0.146999	-0.00526615	1.41808	-0.129767	0	0	-0.458859	0.151491	0.244068	-0.149111	-0.74483	-0.0755997	1.60677	0.597159	0	0	0.59231	-0.489664	0.724217	1.06866	0.668537	0	0
1.95	-0.105803	1.12581	-1.38858	0.618293	-0.133978	0.951441	-0.328581	0.113713	-0.222468	0.30432	-0.210424	0	0	-0.01617	-0.14091	-0.0191064	1.39464	-0.125321	0	0	-0.46198	0.142897	0.252659	-0.150414	-0.745126	-0.0764251	1.60766	0.595022	0	0	0.593372	-0.48936	0.723602	1.06911	0.670046	0	0
1.96	-0.0971402	1.12395	-1.40602	0.616852	-0.143312	0.952288	-0.346244	0.109637	-0.218637	0.297391	-0.20713	0	0	-0.00426135	-0.135815	-0.0333631	1.36493	-0.120976	0	0	-0.465708	0.134786	0.261259	-0.15177	-0.745925	-0.0775073	1.60902	0.591924	0	0	0.594294	-0.48899	0.722733	1.06987	0.670641	0	0
1.97	-0.0895439	1.12122	-1.42227	0.615523	-0.152635	0.953031	-0.364902	0.105841	-0.214536	0.290076	-0.203509	0	0	0.00482807	-0.131417	-0.0469414	1.32888	-0.118853	0	0	-0.470226	0.127565	0.269811	-0.152937	-0.74784	-0.0781921	1.61082	0.588686	0	0	0.595262	-0.488726	0.722125	1.07092	0.670596	0	0
1.98	-0.0828228	1.11739	-1.437	0.6143	-0.161947	0.953696	-0.385061	0.102644	-0.210519	0.281617	-0.199746	0	0	0.0106117	-0.127646	-0.0590651	1.2861	-0.122998	0	0	-0.475792	0.121205	0.278064	-0.154409	-0.750608	-0.0790048	1.61347	0.585203	0	0	0.596741	-0.48867	0.722392	1.07227	0.670254	0	0
1.99	-0.0775479	1.11432	-1.44921	0.613199	-0.171297	0.954165	-0.404258	0.100147	-0.207164	0.273048	-0.196959	0	0	0.0153689	-0.123925	-0.0680242	1.23761	-0.130167	0	0	-0.480208	0.115783	0.285109	-0.155373	-0.753196	-0.0792646	1.61578	0.582876	0	0	0.597916	-0.48896	0.722836	1.07363	0.670377	0	0
2	-0.0737762	1.11207	-1.45901	0.612213	-0.180655	0.954425	-0.422141	0.0983331	-0.204167	0.264911	-0.194591	0	0	0.0192025	-0.120434	-0.0744825	1.18402	-0.139074	0	0	-0.48365	0.111362	0.291187	-0.155855	-0.75528	-0.0795799	1.61783	0.58046	0	0	0.598899	-0.489497	0.723392	1.07503	0.67066	0	0
2.01	-0.0709649	1.11078	-1.46668	0.611332	-0.190036	0.95446	-0.438652	0.0971309	-0.20234	0.257324	-0.191702	0	0	0.0224035	-0.117196	-0.0791579	1.12653	-0.150237	0	0	-0.485822	0.107745	0.296089	-0.155917	-0.756684	-0.0797606	1.61937	0.578763	0	0	0.599783	-0.490065	0.723991	1.07618	0.670428	0	0
2.02	-0.0683984	1.11053	-1.47305	0.610539	-0.199413	0.954274	-0.453903	0.0962273	-0.201155	0.250006	-0.187955	0	0	0.0248668	-0.113863	-0.0835038	1.06578	-0.163063	0	0	-0.486775	0.104526	0.299889	-0.155526	-0.757509	-0.079804	1.62044	0.577659	0	0	0.600551	-0.490692	0.7245	1.07708	0.670344	0	0
2.03	-0.0660262	1.11157	-1.47826	0.609853	-0.208786	0.953881	-0.467616	0.0954911	-0.200523	0.243235	-0.183043	0	0	0.0264476	-0.110117	-0.0883688	1.00169	-0.17434	0	0	-0.486446	0.101677	0.302535	-0.154505	-0.75774	-0.0795813	1.62102	0.577699	0	0	0.600714	-0.491268	0.723974	1.07797	0.670622	0	0
2.04	-0.064349	1.11419	-1.48178	0.60926	-0.218216	0.953277	-0.47973	0.0952821	-0.20003	0.236515	-0.1779	0	0	0.0273506	-0.106599	-0.0944495	0.935215	-0.181205	0	0	-0.48457	0.0993476	0.303945	-0.152859	-0.757033	-0.0791338	1.62101	0.578733	0	0	0.599759	-0.492074	0.721922	1.07941	0.671466	0	0
2.05	-0.0639083	1.11848	-1.48317	0.608773	-0.22773	0.952428	-0.490074	0.0957188	-0.199375	0.230025	-0.172911	0	0	0.0278808	-0.103873	-0.102144	0.866636	-0.184067	0	0	-0.480986	0.0977696	0.304382	-0.151124	-0.755623	-0.0787407	1.62063	0.580491	0	0	0.597784	-0.493117	0.718672	1.08149	0.673067	0	0
